# xmcd CD database file
#
# Track frame offsets:
#	150
#	7425
#	17475
#	41827
#	70577
#	94445
#	113245
#	134822
#	157892
#	169417
#	203635
#	212770
#	226067
#	240477
#	254997
#	276975
#	299127
#
# Disc length: 4219 seconds
#
# Revision: 3
# Processed by: cddbd v1.5.2PL0 Copyright (c) Steve Scherf et al.
# Submitted via: CDex 1.70beta2
#
DISCID=0b107911
DTITLE=COMMON - ONE DAY IT'LL ALL MAKE SENSE
DYEAR=1997
DGENRE=Hip-Hop
TTITLE0=INTROSPECTIVE
TTITLE1=INVOCATION
TTITLE2=REAL NIGGA QUOTES
TTITLE3=RETROSPECTIVE FOR LIFE feat. LAURYN HILL
TTITLE4=GETTIN' DOWN AT THE AMPHITHEATER feat. DE LA SOUL
TTITLE5=FOOD FOR FUNK
TTITLE6=G.O.D. (GAINING ONE'S DEFINITION) feat. CEE-LO
TTITLE7=MY CITY
TTITLE8=HUNGRY
TTITLE9=ALL NIGHT LONG feat. ERYKAH BADU
TTITLE10=STOLEN MOMENTS PT. I
TTITLE11=STOLEN MOMENTS PT. II feat. BLACK THOUGHT
TTITLE12=1'2 MANY
TTITLE13=STOLEN MOMENTS PT. III INTRO/OUTRO: Q-TIP
TTITLE14=MAKING A NAME FOR OURSELVES feat. CANIBUS
TTITLE15=REMINDING ME (OF SEF) feat. CHANTAY SAVAGE
TTITLE16=POP'S RAP PART 2/FATHERHOOD
EXTD=YEAR: 1997
EXTT0=
EXTT1=
EXTT2=
EXTT3=
EXTT4=
EXTT5=
EXTT6=
EXTT7=
EXTT8=
EXTT9=
EXTT10=
EXTT11=
EXTT12=
EXTT13=
EXTT14=
EXTT15=
EXTT16=
PLAYORDER=
